<?xml version="1.0" encoding="utf-8" standalone="no"?>
<!DOCTYPE svg PUBLIC "-//W3C//DTD SVG 1.1//EN"
  "http://www.w3.org/Graphics/SVG/1.1/DTD/svg11.dtd">
<svg xmlns:xlink="http://www.w3.org/1999/xlink" width="526.79924pt" height="253.19952pt" viewBox="0 0 526.79924 253.19952" xmlns="http://www.w3.org/2000/svg" version="1.1">
 <metadata>
  <rdf:RDF xmlns:dc="http://purl.org/dc/elements/1.1/" xmlns:cc="http://creativecommons.org/ns#" xmlns:rdf="http://www.w3.org/1999/02/22-rdf-syntax-ns#">
   <cc:Work>
    <dc:type rdf:resource="http://purl.org/dc/dcmitype/StillImage"/>
    <dc:date>2026-10-09T08:11:45.804157</dc:date>
    <dc:format>image/svg+xml</dc:format>
    <dc:creator>
     <cc:Agent>
      <dc:title>Matplotlib v3.10.9, https://matplotlib.org/</dc:title>
     </cc:Agent>
    </dc:creator>
   </cc:Work>
  </rdf:RDF>
 </metadata>
 <defs>
  <style type="text/css">*{stroke-linejoin: round; stroke-linecap: butt}</style>
 </defs>
 <g id="figure_1">
  <g id="patch_1">
   <path d="M 0 253.19952 
L 526.79924 253.19952 
L 526.79924 0 
L 0 0 
z
" style="fill: #ffffff"/>
  </g>
  <g id="axes_1">
   <g id="patch_2">
    <path d="M 43.803125 215.621395 
L 518.561637 215.621395 
L 518.561637 7.2 
L 43.803125 7.2 
z
" style="fill: #ffffff"/>
   </g>
   <g id="matplotlib.axis_1">
    <g id="xtick_1">
     <g id="line2d_1">
      <defs>
       <path id="me7a2dc666e" d="M 0 0 
L 0 3.5 
" style="stroke: #000000; stroke-width: 0.8"/>
      </defs>
      <g>
       <use xlink:href="#me7a2dc666e" x="50.717084" y="215.621395" style="stroke: #000000; stroke-width: 0.8"/>
      </g>
     </g>
     <g id="text_1">
      <text style="font-size: 10px; font-family: 'DejaVu Sans'; text-anchor: middle" x="50.717084" y="230.219832" transform="rotate(-0 50.717084 230.219832)">0.0</text>
     </g>
    </g>
    <g id="xtick_2">
     <g id="line2d_2">
      <g>
       <use xlink:href="#me7a2dc666e" x="142.903203" y="215.621395" style="stroke: #000000; stroke-width: 0.8"/>
      </g>
     </g>
     <g id="text_2">
      <text style="font-size: 10px; font-family: 'DejaVu Sans'; text-anchor: middle" x="142.903203" y="230.219832" transform="rotate(-0 142.903203 230.219832)">0.2</text>
     </g>
    </g>
    <g id="xtick_3">
     <g id="line2d_3">
      <g>
       <use xlink:href="#me7a2dc666e" x="235.089321" y="215.621395" style="stroke: #000000; stroke-width: 0.8"/>
      </g>
     </g>
     <g id="text_3">
      <text style="font-size: 10px; font-family: 'DejaVu Sans'; text-anchor: middle" x="235.089321" y="230.219832" transform="rotate(-0 235.089321 230.219832)">0.4</text>
     </g>
    </g>
    <g id="xtick_4">
     <g id="line2d_4">
      <g>
       <use xlink:href="#me7a2dc666e" x="327.27544" y="215.621395" style="stroke: #000000; stroke-width: 0.8"/>
      </g>
     </g>
     <g id="text_4">
      <text style="font-size: 10px; font-family: 'DejaVu Sans'; text-anchor: middle" x="327.27544" y="230.219832" transform="rotate(-0 327.27544 230.219832)">0.6</text>
     </g>
    </g>
    <g id="xtick_5">
     <g id="line2d_5">
      <g>
       <use xlink:href="#me7a2dc666e" x="419.461559" y="215.621395" style="stroke: #000000; stroke-width: 0.8"/>
      </g>
     </g>
     <g id="text_5">
      <text style="font-size: 10px; font-family: 'DejaVu Sans'; text-anchor: middle" x="419.461559" y="230.219832" transform="rotate(-0 419.461559 230.219832)">0.8</text>
     </g>
    </g>
    <g id="xtick_6">
     <g id="line2d_6">
      <g>
       <use xlink:href="#me7a2dc666e" x="511.647678" y="215.621395" style="stroke: #000000; stroke-width: 0.8"/>
      </g>
     </g>
     <g id="text_6">
      <text style="font-size: 10px; font-family: 'DejaVu Sans'; text-anchor: middle" x="511.647678" y="230.219832" transform="rotate(-0 511.647678 230.219832)">1.0</text>
     </g>
    </g>
    <g id="text_7">
     <!-- prescribed phase $\Phi/\pi$ -->
     <g transform="translate(227.732381 243.89952)">
      <text>
       <tspan x="0" y="-0.40625" style="font-size: 10px; font-family: 'DejaVu Sans'">p</tspan>
       <tspan x="6.347656" y="-0.40625" style="font-size: 10px; font-family: 'DejaVu Sans'">r</tspan>
       <tspan x="10.458984" y="-0.40625" style="font-size: 10px; font-family: 'DejaVu Sans'">e</tspan>
       <tspan x="16.611328" y="-0.40625" style="font-size: 10px; font-family: 'DejaVu Sans'">s</tspan>
       <tspan x="21.821289" y="-0.40625" style="font-size: 10px; font-family: 'DejaVu Sans'">c</tspan>
       <tspan x="27.319336" y="-0.40625" style="font-size: 10px; font-family: 'DejaVu Sans'">r</tspan>
       <tspan x="31.430664" y="-0.40625" style="font-size: 10px; font-family: 'DejaVu Sans'">i</tspan>
       <tspan x="34.208984" y="-0.40625" style="font-size: 10px; font-family: 'DejaVu Sans'">b</tspan>
       <tspan x="40.556641" y="-0.40625" style="font-size: 10px; font-family: 'DejaVu Sans'">e</tspan>
       <tspan x="46.708984" y="-0.40625" style="font-size: 10px; font-family: 'DejaVu Sans'">d</tspan>
       <tspan x="53.056641" y="-0.40625" style="font-size: 10px; font-family: 'DejaVu Sans'"> </tspan>
       <tspan x="56.235352" y="-0.40625" style="font-size: 10px; font-family: 'DejaVu Sans'">p</tspan>
       <tspan x="62.583008" y="-0.40625" style="font-size: 10px; font-family: 'DejaVu Sans'">h</tspan>
       <tspan x="68.920898" y="-0.40625" style="font-size: 10px; font-family: 'DejaVu Sans'">a</tspan>
       <tspan x="75.048828" y="-0.40625" style="font-size: 10px; font-family: 'DejaVu Sans'">s</tspan>
       <tspan x="80.258789" y="-0.40625" style="font-size: 10px; font-family: 'DejaVu Sans'">e</tspan>
       <tspan x="86.411133" y="-0.40625" style="font-size: 10px; font-family: 'DejaVu Sans'"> </tspan>
       <tspan x="89.589844" y="-0.40625" style="font-size: 10px; font-family: 'DejaVu Sans'">Φ</tspan>
       <tspan x="97.460938" y="-0.40625" style="font-size: 10px; font-family: 'DejaVu Sans'">/</tspan>
       <tspan x="100.830078" y="-0.40625" style="font-style: oblique; font-size: 10px; font-family: 'DejaVu Sans'">π</tspan>
      </text>
     </g>
    </g>
   </g>
   <g id="matplotlib.axis_2">
    <g id="ytick_1">
     <g id="line2d_7">
      <defs>
       <path id="mc8e4454176" d="M 0 0 
L -3.5 0 
" style="stroke: #000000; stroke-width: 0.8"/>
      </defs>
      <g>
       <use xlink:href="#mc8e4454176" x="43.803125" y="207.294377" style="stroke: #000000; stroke-width: 0.8"/>
      </g>
     </g>
     <g id="text_8">
      <text style="font-size: 10px; font-family: 'DejaVu Sans'; text-anchor: end" x="36.803125" y="211.093596" transform="rotate(-0 36.803125 211.093596)">0.0</text>
     </g>
    </g>
    <g id="ytick_2">
     <g id="line2d_8">
      <g>
       <use xlink:href="#mc8e4454176" x="43.803125" y="171.264877" style="stroke: #000000; stroke-width: 0.8"/>
      </g>
     </g>
     <g id="text_9">
      <text style="font-size: 10px; font-family: 'DejaVu Sans'; text-anchor: end" x="36.803125" y="175.064096" transform="rotate(-0 36.803125 175.064096)">0.1</text>
     </g>
    </g>
    <g id="ytick_3">
     <g id="line2d_9">
      <g>
       <use xlink:href="#mc8e4454176" x="43.803125" y="135.235377" style="stroke: #000000; stroke-width: 0.8"/>
      </g>
     </g>
     <g id="text_10">
      <text style="font-size: 10px; font-family: 'DejaVu Sans'; text-anchor: end" x="36.803125" y="139.034596" transform="rotate(-0 36.803125 139.034596)">0.2</text>
     </g>
    </g>
    <g id="ytick_4">
     <g id="line2d_10">
      <g>
       <use xlink:href="#mc8e4454176" x="43.803125" y="99.205877" style="stroke: #000000; stroke-width: 0.8"/>
      </g>
     </g>
     <g id="text_11">
      <text style="font-size: 10px; font-family: 'DejaVu Sans'; text-anchor: end" x="36.803125" y="103.005096" transform="rotate(-0 36.803125 103.005096)">0.3</text>
     </g>
    </g>
    <g id="ytick_5">
     <g id="line2d_11">
      <g>
       <use xlink:href="#mc8e4454176" x="43.803125" y="63.176378" style="stroke: #000000; stroke-width: 0.8"/>
      </g>
     </g>
     <g id="text_12">
      <text style="font-size: 10px; font-family: 'DejaVu Sans'; text-anchor: end" x="36.803125" y="66.975596" transform="rotate(-0 36.803125 66.975596)">0.4</text>
     </g>
    </g>
    <g id="ytick_6">
     <g id="line2d_12">
      <g>
       <use xlink:href="#mc8e4454176" x="43.803125" y="27.146878" style="stroke: #000000; stroke-width: 0.8"/>
      </g>
     </g>
     <g id="text_13">
      <text style="font-size: 10px; font-family: 'DejaVu Sans'; text-anchor: end" x="36.803125" y="30.946097" transform="rotate(-0 36.803125 30.946097)">0.5</text>
     </g>
    </g>
    <g id="text_14">
     <!-- intensity $P$ -->
     <g transform="translate(14.8 137.710698) rotate(-90)">
      <text>
       <tspan x="0" y="-0.40625" style="font-size: 10px; font-family: 'DejaVu Sans'">i</tspan>
       <tspan x="2.77832" y="-0.40625" style="font-size: 10px; font-family: 'DejaVu Sans'">n</tspan>
       <tspan x="9.116211" y="-0.40625" style="font-size: 10px; font-family: 'DejaVu Sans'">t</tspan>
       <tspan x="13.037109" y="-0.40625" style="font-size: 10px; font-family: 'DejaVu Sans'">e</tspan>
       <tspan x="19.189453" y="-0.40625" style="font-size: 10px; font-family: 'DejaVu Sans'">n</tspan>
       <tspan x="25.527344" y="-0.40625" style="font-size: 10px; font-family: 'DejaVu Sans'">s</tspan>
       <tspan x="30.737305" y="-0.40625" style="font-size: 10px; font-family: 'DejaVu Sans'">i</tspan>
       <tspan x="33.515625" y="-0.40625" style="font-size: 10px; font-family: 'DejaVu Sans'">t</tspan>
       <tspan x="37.436523" y="-0.40625" style="font-size: 10px; font-family: 'DejaVu Sans'">y</tspan>
       <tspan x="43.354492" y="-0.40625" style="font-size: 10px; font-family: 'DejaVu Sans'"> </tspan>
       <tspan x="46.533203" y="-0.40625" style="font-style: oblique; font-size: 10px; font-family: 'DejaVu Sans'">P</tspan>
      </text>
     </g>
    </g>
   </g>
   <g id="line2d_13">
    <path d="M 50.717084 24.724597 
L 54.558172 26.843655 
L 58.39926 29.194506 
L 62.240349 31.770706 
L 66.849655 35.149622 
L 71.458961 38.829506 
L 76.068267 42.795834 
L 80.677572 47.032954 
L 86.055096 52.296145 
L 91.43262 57.876844 
L 97.578361 64.605046 
L 103.724102 71.661556 
L 110.638061 79.930854 
L 119.088455 90.409636 
L 129.843502 104.130163 
L 153.65825 134.638521 
L 162.108644 145.0411 
L 169.022603 153.226791 
L 175.168344 160.193555 
L 181.314085 166.818143 
L 186.691609 172.297371 
L 192.069133 177.449574 
L 196.678439 181.584436 
L 201.287745 185.442354 
L 205.89705 189.008103 
L 210.506356 192.26761 
L 214.347445 194.740614 
L 218.188533 196.985216 
L 222.029621 198.995264 
L 225.87071 200.765249 
L 229.711798 202.290319 
L 233.552886 203.566295 
L 237.393974 204.589679 
L 241.235063 205.357665 
L 245.076151 205.86815 
L 248.917239 206.119733 
L 252.758327 206.111725 
L 256.599416 205.844148 
L 260.440504 205.317736 
L 264.281592 204.533931 
L 268.122681 203.494882 
L 271.963769 202.203436 
L 275.804857 200.663134 
L 279.645945 198.878197 
L 283.487034 196.853518 
L 287.328122 194.594646 
L 291.16921 192.107772 
L 295.778516 188.832203 
L 300.387822 185.251085 
L 304.997128 181.378554 
L 309.606434 177.229892 
L 314.983958 172.062687 
L 320.361481 166.569718 
L 325.739005 160.780487 
L 331.884746 153.841408 
L 338.798705 145.681702 
L 346.480882 136.261835 
L 356.467711 123.624775 
L 387.964635 83.40786 
L 395.646812 74.10097 
L 402.56077 66.071452 
L 408.706512 59.26981 
L 414.084035 53.616817 
L 419.461559 48.274237 
L 424.839082 43.270767 
L 429.448388 39.272404 
L 434.057694 35.558738 
L 438.667 32.144425 
L 443.276306 29.04294 
L 447.117394 26.706204 
L 450.958483 24.601637 
L 454.799571 22.735007 
L 458.640659 21.111431 
L 462.481748 19.735359 
L 466.322836 18.610563 
L 470.163924 17.740126 
L 474.005012 17.126433 
L 477.846101 16.771167 
L 481.687189 16.675302 
L 485.528277 16.839099 
L 489.369366 17.26211 
L 493.210454 17.943177 
L 497.051542 18.880431 
L 500.89263 20.071304 
L 504.733719 21.512532 
L 508.574807 23.200165 
L 511.647678 24.724597 
L 511.647678 24.724597 
" clip-path="url(#paf0655ba9a)" style="fill: none; stroke: #24628c; stroke-width: 2; stroke-linecap: square"/>
   </g>
   <g id="line2d_14">
    <defs>
     <path id="me01cb86bd2" d="M 0 1 
C 0.265203 1 0.51958 0.894634 0.707107 0.707107 
C 0.894634 0.51958 1 0.265203 1 0 
C 1 -0.265203 0.894634 -0.51958 0.707107 -0.707107 
C 0.51958 -0.894634 0.265203 -1 0 -1 
C -0.265203 -1 -0.51958 -0.894634 -0.707107 -0.707107 
C -0.894634 -0.51958 -1 -0.265203 -1 0 
C -1 0.265203 -0.894634 0.51958 -0.707107 0.707107 
C -0.51958 0.894634 -0.265203 1 0 1 
z
" style="stroke: #b65327"/>
    </defs>
    <g clip-path="url(#paf0655ba9a)">
     <use xlink:href="#me01cb86bd2" x="50.717084" y="24.724597" style="fill: #b65327; stroke: #b65327"/>
     <use xlink:href="#me01cb86bd2" x="62.240349" y="31.770706" style="fill: #b65327; stroke: #b65327"/>
     <use xlink:href="#me01cb86bd2" x="73.763614" y="40.777817" style="fill: #b65327; stroke: #b65327"/>
     <use xlink:href="#me01cb86bd2" x="85.286878" y="51.524143" style="fill: #b65327; stroke: #b65327"/>
     <use xlink:href="#me01cb86bd2" x="96.810143" y="63.745075" style="fill: #b65327; stroke: #b65327"/>
     <use xlink:href="#me01cb86bd2" x="108.333408" y="77.139693" style="fill: #b65327; stroke: #b65327"/>
     <use xlink:href="#me01cb86bd2" x="119.856673" y="91.378177" style="fill: #b65327; stroke: #b65327"/>
     <use xlink:href="#me01cb86bd2" x="131.379938" y="106.109927" style="fill: #b65327; stroke: #b65327"/>
     <use xlink:href="#me01cb86bd2" x="142.903203" y="120.972201" style="fill: #b65327; stroke: #b65327"/>
     <use xlink:href="#me01cb86bd2" x="154.426467" y="135.599038" style="fill: #b65327; stroke: #b65327"/>
     <use xlink:href="#me01cb86bd2" x="165.949732" y="149.630279" style="fill: #b65327; stroke: #b65327"/>
     <use xlink:href="#me01cb86bd2" x="177.472997" y="162.720426" style="fill: #b65327; stroke: #b65327"/>
     <use xlink:href="#me01cb86bd2" x="188.996262" y="174.547158" style="fill: #b65327; stroke: #b65327"/>
     <use xlink:href="#me01cb86bd2" x="200.519527" y="184.81926" style="fill: #b65327; stroke: #b65327"/>
     <use xlink:href="#me01cb86bd2" x="212.042792" y="193.2838" style="fill: #b65327; stroke: #b65327"/>
     <use xlink:href="#me01cb86bd2" x="223.566057" y="199.732352" style="fill: #b65327; stroke: #b65327"/>
     <use xlink:href="#me01cb86bd2" x="235.089321" y="204.006132" style="fill: #b65327; stroke: #b65327"/>
     <use xlink:href="#me01cb86bd2" x="246.612586" y="205.999906" style="fill: #b65327; stroke: #b65327"/>
     <use xlink:href="#me01cb86bd2" x="258.135851" y="205.664579" style="fill: #b65327; stroke: #b65327"/>
     <use xlink:href="#me01cb86bd2" x="269.659116" y="203.008408" style="fill: #b65327; stroke: #b65327"/>
     <use xlink:href="#me01cb86bd2" x="281.182381" y="198.096798" style="fill: #b65327; stroke: #b65327"/>
     <use xlink:href="#me01cb86bd2" x="292.705646" y="191.050689" style="fill: #b65327; stroke: #b65327"/>
     <use xlink:href="#me01cb86bd2" x="304.22891" y="182.043578" style="fill: #b65327; stroke: #b65327"/>
     <use xlink:href="#me01cb86bd2" x="315.752175" y="171.297252" style="fill: #b65327; stroke: #b65327"/>
     <use xlink:href="#me01cb86bd2" x="327.27544" y="159.07632" style="fill: #b65327; stroke: #b65327"/>
     <use xlink:href="#me01cb86bd2" x="338.798705" y="145.681702" style="fill: #b65327; stroke: #b65327"/>
     <use xlink:href="#me01cb86bd2" x="350.32197" y="131.443218" style="fill: #b65327; stroke: #b65327"/>
     <use xlink:href="#me01cb86bd2" x="361.845235" y="116.711468" style="fill: #b65327; stroke: #b65327"/>
     <use xlink:href="#me01cb86bd2" x="373.3685" y="101.849194" style="fill: #b65327; stroke: #b65327"/>
     <use xlink:href="#me01cb86bd2" x="384.891764" y="87.222357" style="fill: #b65327; stroke: #b65327"/>
     <use xlink:href="#me01cb86bd2" x="396.415029" y="73.191116" style="fill: #b65327; stroke: #b65327"/>
     <use xlink:href="#me01cb86bd2" x="407.938294" y="60.100969" style="fill: #b65327; stroke: #b65327"/>
     <use xlink:href="#me01cb86bd2" x="419.461559" y="48.274237" style="fill: #b65327; stroke: #b65327"/>
     <use xlink:href="#me01cb86bd2" x="430.984824" y="38.002135" style="fill: #b65327; stroke: #b65327"/>
     <use xlink:href="#me01cb86bd2" x="442.508089" y="29.537595" style="fill: #b65327; stroke: #b65327"/>
     <use xlink:href="#me01cb86bd2" x="454.031353" y="23.089043" style="fill: #b65327; stroke: #b65327"/>
     <use xlink:href="#me01cb86bd2" x="465.554618" y="18.815263" style="fill: #b65327; stroke: #b65327"/>
     <use xlink:href="#me01cb86bd2" x="477.077883" y="16.821489" style="fill: #b65327; stroke: #b65327"/>
     <use xlink:href="#me01cb86bd2" x="488.601148" y="17.156816" style="fill: #b65327; stroke: #b65327"/>
     <use xlink:href="#me01cb86bd2" x="500.124413" y="19.812987" style="fill: #b65327; stroke: #b65327"/>
     <use xlink:href="#me01cb86bd2" x="511.647678" y="24.724597" style="fill: #b65327; stroke: #b65327"/>
    </g>
   </g>
   <g id="patch_3">
    <path d="M 43.803125 215.621395 
L 43.803125 7.2 
" style="fill: none; stroke: #000000; stroke-width: 0.8; stroke-linejoin: miter; stroke-linecap: square"/>
   </g>
   <g id="patch_4">
    <path d="M 43.803125 215.621395 
L 518.561637 215.621395 
" style="fill: none; stroke: #000000; stroke-width: 0.8; stroke-linejoin: miter; stroke-linecap: square"/>
   </g>
   <g id="PathCollection_1">
    <defs>
     <path id="m67351e21b2" d="M 0 3.354102 
C 0.889518 3.354102 1.742724 3.000693 2.371708 2.371708 
C 3.000693 1.742724 3.354102 0.889518 3.354102 0 
C 3.354102 -0.889518 3.000693 -1.742724 2.371708 -2.371708 
C 1.742724 -3.000693 0.889518 -3.354102 0 -3.354102 
C -0.889518 -3.354102 -1.742724 -3.000693 -2.371708 -2.371708 
C -3.000693 -1.742724 -3.354102 -0.889518 -3.354102 0 
C -3.354102 0.889518 -3.000693 1.742724 -2.371708 2.371708 
C -1.742724 3.000693 -0.889518 3.354102 0 3.354102 
z
" style="stroke: #247e70"/>
    </defs>
    <g clip-path="url(#paf0655ba9a)">
     <use xlink:href="#m67351e21b2" x="50.717084" y="24.724597" style="fill: #247e70; stroke: #247e70"/>
     <use xlink:href="#m67351e21b2" x="165.949732" y="149.630279" style="fill: #247e70; stroke: #247e70"/>
     <use xlink:href="#m67351e21b2" x="281.182381" y="198.096798" style="fill: #247e70; stroke: #247e70"/>
    </g>
   </g>
   <g id="legend_1">
    <g id="patch_5">
     <path d="M 202.963943 54.030938 
L 359.400818 54.030938 
Q 361.200818 54.030938 361.200818 52.230938 
L 361.200818 13.5 
Q 361.200818 11.7 359.400818 11.7 
L 202.963943 11.7 
Q 201.163943 11.7 201.163943 13.5 
L 201.163943 52.230938 
Q 201.163943 54.030938 202.963943 54.030938 
z
" style="fill: #ffffff; opacity: 0.8; stroke: #cccccc; stroke-linejoin: miter"/>
    </g>
    <g id="line2d_15">
     <path d="M 204.763943 18.988594 
L 213.763943 18.988594 
L 222.763943 18.988594 
" style="fill: none; stroke: #24628c; stroke-width: 2; stroke-linecap: square"/>
    </g>
    <g id="text_15">
     <text style="font-size: 9px; font-family: 'DejaVu Sans'; text-anchor: start" x="229.963943" y="22.138594" transform="rotate(-0 229.963943 22.138594)">direct common-angle sum</text>
    </g>
    <g id="line2d_16">
     <g>
      <use xlink:href="#me01cb86bd2" x="213.763943" y="32.198906" style="fill: #b65327; stroke: #b65327"/>
     </g>
    </g>
    <g id="text_16">
     <text style="font-size: 9px; font-family: 'DejaVu Sans'; text-anchor: start" x="229.963943" y="35.348906" transform="rotate(-0 229.963943 35.348906)">three-sample reconstruction</text>
    </g>
    <g id="PathCollection_2">
     <g>
      <use xlink:href="#m67351e21b2" x="213.763943" y="46.196719" style="fill: #247e70; stroke: #247e70"/>
     </g>
    </g>
    <g id="text_17">
     <text style="font-size: 9px; font-family: 'DejaVu Sans'; text-anchor: start" x="229.963943" y="48.559219" transform="rotate(-0 229.963943 48.559219)">samples</text>
    </g>
   </g>
  </g>
 </g>
 <defs>
  <clipPath id="paf0655ba9a">
   <rect x="43.803125" y="7.2" width="474.758512" height="208.421395"/>
  </clipPath>
 </defs>
</svg>
