<?xml version="1.0" encoding="utf-8" standalone="no"?>
<!DOCTYPE svg PUBLIC "-//W3C//DTD SVG 1.1//EN"
  "http://www.w3.org/Graphics/SVG/1.1/DTD/svg11.dtd">
<svg xmlns:xlink="http://www.w3.org/1999/xlink" width="391.392pt" height="202.896pt" viewBox="0 0 391.392 202.896" xmlns="http://www.w3.org/2000/svg" version="1.1">
 <metadata>
  <rdf:RDF xmlns:dc="http://purl.org/dc/elements/1.1/" xmlns:cc="http://creativecommons.org/ns#" xmlns:rdf="http://www.w3.org/1999/02/22-rdf-syntax-ns#">
   <cc:Work>
    <dc:type rdf:resource="http://purl.org/dc/dcmitype/StillImage"/>
    <dc:date>2026-10-05T19:29:35.510337</dc:date>
    <dc:format>image/svg+xml</dc:format>
    <dc:creator>
     <cc:Agent>
      <dc:title>Matplotlib v3.11.2, https://matplotlib.org/</dc:title>
     </cc:Agent>
    </dc:creator>
   </cc:Work>
  </rdf:RDF>
 </metadata>
 <defs>
  <style type="text/css">*{stroke-linejoin: round; stroke-linecap: butt}</style>
 </defs>
 <g id="figure_1">
  <g id="patch_1">
   <path d="M 0 202.896 
L 391.392 202.896 
L 391.392 -0 
L 0 -0 
z
" style="fill: #ffffff"/>
  </g>
  <g id="axes_1">
   <g id="patch_2">
    <path d="M 124.06752 161.76672 
C 141.064026 161.76672 157.366687 155.013937 169.385032 142.995592 
C 181.403377 130.977247 188.15616 114.674586 188.15616 97.67808 
C 188.15616 80.681574 181.403377 64.378913 169.385032 52.360568 
C 157.366687 40.342223 141.064026 33.58944 124.06752 33.58944 
C 107.071014 33.58944 90.768353 40.342223 78.750008 52.360568 
C 66.731663 64.378913 59.97888 80.681574 59.97888 97.67808 
C 59.97888 114.674586 66.731663 130.977247 78.750008 142.995592 
C 90.768353 155.013937 107.071014 161.76672 124.06752 161.76672 
z
" clip-path="url(#p7a395a1248)" style="fill: #f2f8f8; stroke: #126775; stroke-width: 1.2; stroke-linejoin: miter"/>
   </g>
   <g id="PathCollection_1">
    <defs>
     <path id="m2736ffbc5e" d="M 0 2.738613 
C 0.726289 2.738613 1.422928 2.450055 1.936492 1.936492 
C 2.450055 1.422928 2.738613 0.726289 2.738613 0 
C 2.738613 -0.726289 2.450055 -1.422928 1.936492 -1.936492 
C 1.422928 -2.450055 0.726289 -2.738613 0 -2.738613 
C -0.726289 -2.738613 -1.422928 -2.450055 -1.936492 -1.936492 
C -2.450055 -1.422928 -2.738613 -0.726289 -2.738613 0 
C -2.738613 0.726289 -2.450055 1.422928 -1.936492 1.936492 
C -1.422928 2.450055 -0.726289 2.738613 0 2.738613 
z
" style="stroke: #697580"/>
    </defs>
    <g clip-path="url(#p7a395a1248)">
     <use xlink:href="#m2736ffbc5e" x="82.5984" y="120.2976" style="fill: #697580; stroke: #697580"/>
    </g>
   </g>
   <g id="PathCollection_2">
    <g clip-path="url(#p7a395a1248)">
     <use xlink:href="#m2736ffbc5e" x="165.53664" y="116.52768" style="fill: #697580; stroke: #697580"/>
    </g>
   </g>
   <g id="PathCollection_3">
    <g clip-path="url(#p7a395a1248)">
     <use xlink:href="#m2736ffbc5e" x="124.06752" y="41.12928" style="fill: #697580; stroke: #697580"/>
    </g>
   </g>
   <g id="PathCollection_4">
    <defs>
     <path id="m4996a4a983" d="M 0 2.738613 
C 0.726289 2.738613 1.422928 2.450055 1.936492 1.936492 
C 2.450055 1.422928 2.738613 0.726289 2.738613 0 
C 2.738613 -0.726289 2.450055 -1.422928 1.936492 -1.936492 
C 1.422928 -2.450055 0.726289 -2.738613 0 -2.738613 
C -0.726289 -2.738613 -1.422928 -2.450055 -1.936492 -1.936492 
C -2.450055 -1.422928 -2.738613 -0.726289 -2.738613 0 
C -2.738613 0.726289 -2.450055 1.422928 -1.936492 1.936492 
C -1.422928 2.450055 -0.726289 2.738613 0 2.738613 
z
" style="stroke: #bb5d28"/>
    </defs>
    <g clip-path="url(#p7a395a1248)">
     <use xlink:href="#m4996a4a983" x="105.21792" y="78.82848" style="fill: #bb5d28; stroke: #bb5d28"/>
    </g>
   </g>
   <g id="PathCollection_5">
    <defs>
     <path id="ma8c596f61d" d="M 0 2.738613 
C 0.726289 2.738613 1.422928 2.450055 1.936492 1.936492 
C 2.450055 1.422928 2.738613 0.726289 2.738613 0 
C 2.738613 -0.726289 2.450055 -1.422928 1.936492 -1.936492 
C 1.422928 -2.450055 0.726289 -2.738613 0 -2.738613 
C -0.726289 -2.738613 -1.422928 -2.450055 -1.936492 -1.936492 
C -2.450055 -1.422928 -2.738613 -0.726289 -2.738613 0 
C -2.738613 0.726289 -2.450055 1.422928 -1.936492 1.936492 
C -1.422928 2.450055 -0.726289 2.738613 0 2.738613 
z
" style="stroke: #69559b"/>
    </defs>
    <g clip-path="url(#p7a395a1248)">
     <use xlink:href="#ma8c596f61d" x="157.9968" y="73.1736" style="fill: #69559b; stroke: #69559b"/>
    </g>
   </g>
   <g id="text_1">
    <text style="font-size: 12px; font-family: 'DejaVu Serif'; text-anchor: start; fill: #697580" x="88.25328" y="114.64272" transform="rotate(-0 88.25328 114.64272)">0</text>
   </g>
   <g id="text_2">
    <text style="font-size: 12px; font-family: 'DejaVu Serif'; text-anchor: start; fill: #697580" x="171.19152" y="110.8728" transform="rotate(-0 171.19152 110.8728)">1</text>
   </g>
   <g id="text_3">
    <!-- $\infty$ -->
    <g style="fill: #697580" transform="translate(129.7224 35.4744)">
     <text>
      <tspan x="0" y="-0.109375" style="font-size: 12px; font-family: 'DejaVu Serif'; fill: #697580">∞</tspan>
     </text>
    </g>
   </g>
   <g id="text_4">
    <!-- $\lambda$ -->
    <g style="fill: #bb5d28" transform="translate(110.8728 73.1736)">
     <text>
      <tspan x="0" y="-0.8125" style="font-style: italic; font-size: 12px; font-family: 'DejaVu Serif'; fill: #bb5d28">λ</tspan>
     </text>
    </g>
   </g>
   <g id="text_5">
    <!-- $\nu$ -->
    <g style="fill: #69559b" transform="translate(163.65168 67.51872)">
     <text>
      <tspan x="0" y="-0.765625" style="font-style: italic; font-size: 12px; font-family: 'DejaVu Serif'; fill: #69559b">ν</tspan>
     </text>
    </g>
   </g>
   <g id="text_6">
    <text style="font-size: 11px; font-family: 'DejaVu Serif'; text-anchor: middle" x="293.71392" y="48.66912" transform="rotate(-0 293.71392 48.66912)">Five labeled target points</text>
   </g>
   <g id="text_7">
    <!-- $(0,1,\infty,\lambda,\nu)$ -->
    <g transform="translate(259.83392 80.67599)">
     <text>
      <tspan x="0" y="-0.578125" style="font-size: 11px; font-family: 'DejaVu Serif'">(</tspan>
      <tspan x="4.291504" y="-0.578125" style="font-size: 11px; font-family: 'DejaVu Serif'">0</tspan>
      <tspan x="11.290039" y="-0.578125" style="font-size: 11px; font-family: 'DejaVu Serif'">,</tspan>
      <tspan x="16.872754" y="-0.578125" style="font-size: 11px; font-family: 'DejaVu Serif'">1</tspan>
      <tspan x="23.871289" y="-0.578125" style="font-size: 11px; font-family: 'DejaVu Serif'">,</tspan>
      <tspan x="29.454004" y="-0.578125" style="font-size: 11px; font-family: 'DejaVu Serif'">∞</tspan>
      <tspan x="38.61709" y="-0.578125" style="font-size: 11px; font-family: 'DejaVu Serif'">,</tspan>
      <tspan x="51.171484" y="-0.578125" style="font-size: 11px; font-family: 'DejaVu Serif'">,</tspan>
      <tspan x="63.441211" y="-0.578125" style="font-size: 11px; font-family: 'DejaVu Serif'">)</tspan>
      <tspan x="44.199805" y="-0.578125" style="font-style: italic; font-size: 11px; font-family: 'DejaVu Serif'">λ</tspan>
      <tspan x="56.754199" y="-0.578125" style="font-style: italic; font-size: 11px; font-family: 'DejaVu Serif'">ν</tspan>
     </text>
    </g>
    <text style="font-size: 11px; font-family: 'DejaVu Serif'" transform="translate(293.71392 93.878139)"/>
    <!-- $\lambda,\nu\notin\{0,1,\infty\}$ -->
    <g transform="translate(253.72892 107.192865)">
     <text>
      <tspan x="0" y="-0.578125" style="font-style: italic; font-size: 11px; font-family: 'DejaVu Serif'">λ</tspan>
      <tspan x="12.554395" y="-0.578125" style="font-style: italic; font-size: 11px; font-family: 'DejaVu Serif'">ν</tspan>
      <tspan x="6.97168" y="-0.578125" style="font-size: 11px; font-family: 'DejaVu Serif'">,</tspan>
      <tspan x="21.327539" y="-0.578125" style="font-size: 11px; font-family: 'DejaVu Serif'">∉</tspan>
      <tspan x="31.55625" y="-0.578125" style="font-size: 11px; font-family: 'DejaVu Serif'">{</tspan>
      <tspan x="38.554785" y="-0.578125" style="font-size: 11px; font-family: 'DejaVu Serif'">0</tspan>
      <tspan x="45.55332" y="-0.578125" style="font-size: 11px; font-family: 'DejaVu Serif'">,</tspan>
      <tspan x="51.136035" y="-0.578125" style="font-size: 11px; font-family: 'DejaVu Serif'">1</tspan>
      <tspan x="58.13457" y="-0.578125" style="font-size: 11px; font-family: 'DejaVu Serif'">,</tspan>
      <tspan x="63.717285" y="-0.578125" style="font-size: 11px; font-family: 'DejaVu Serif'">∞</tspan>
      <tspan x="72.880371" y="-0.578125" style="font-size: 11px; font-family: 'DejaVu Serif'">}</tspan>
     </text>
    </g>
    <!-- $\lambda\ne\nu$ -->
    <g transform="translate(280.18392 120.507592)">
     <text>
      <tspan x="0" y="-0.578125" style="font-style: italic; font-size: 11px; font-family: 'DejaVu Serif'">λ</tspan>
      <tspan x="20.360742" y="-0.578125" style="font-style: italic; font-size: 11px; font-family: 'DejaVu Serif'">ν</tspan>
      <tspan x="9.057813" y="-0.578125" style="font-size: 11px; font-family: 'DejaVu Serif'">≠</tspan>
     </text>
    </g>
   </g>
   <g id="text_8">
    <text style="font-size: 8px; font-family: 'DejaVu Serif'; fill: #697580" transform="translate(224.10392 154.049492)">Cover type must also be specified.</text>
    <text style="font-size: 8px; font-family: 'DejaVu Serif'; fill: #697580" transform="translate(203.648295 163.65168)">Positions are schematic, not a real ordering.</text>
   </g>
  </g>
 </g>
 <defs>
  <clipPath id="p7a395a1248">
   <rect x="7.2" y="7.2" width="376.992" height="188.496"/>
  </clipPath>
 </defs>
</svg>
