<?xml version="1.0" encoding="utf-8" standalone="no"?>
<!DOCTYPE svg PUBLIC "-//W3C//DTD SVG 1.1//EN"
  "http://www.w3.org/Graphics/SVG/1.1/DTD/svg11.dtd">
<svg xmlns:xlink="http://www.w3.org/1999/xlink" width="512.39952pt" height="274.79952pt" viewBox="0 0 512.39952 274.79952" xmlns="http://www.w3.org/2000/svg" version="1.1">
 <metadata>
  <rdf:RDF xmlns:dc="http://purl.org/dc/elements/1.1/" xmlns:cc="http://creativecommons.org/ns#" xmlns:rdf="http://www.w3.org/1999/02/22-rdf-syntax-ns#">
   <cc:Work>
    <dc:type rdf:resource="http://purl.org/dc/dcmitype/StillImage"/>
    <dc:date>2026-10-05T19:29:36.197608</dc:date>
    <dc:format>image/svg+xml</dc:format>
    <dc:creator>
     <cc:Agent>
      <dc:title>Matplotlib v3.11.2, https://matplotlib.org/</dc:title>
     </cc:Agent>
    </dc:creator>
   </cc:Work>
  </rdf:RDF>
 </metadata>
 <defs>
  <style type="text/css">*{stroke-linejoin: round; stroke-linecap: butt}</style>
 </defs>
 <g id="figure_1">
  <g id="patch_1">
   <path d="M 0 274.79952 
L 512.39952 274.79952 
L 512.39952 0 
L 0 0 
z
" style="fill: #ffffff"/>
  </g>
  <g id="axes_1">
   <g id="patch_2">
    <path d="M 40.467969 233.918895 
L 248.906239 233.918895 
L 248.906239 25.480625 
L 40.467969 25.480625 
z
" style="fill: #ffffff"/>
   </g>
   <g id="PathCollection_1">
    <defs>
     <path id="m0c99941b9a" d="M 0 2.5 
C 0.663008 2.5 1.29895 2.236584 1.767767 1.767767 
C 2.236584 1.29895 2.5 0.663008 2.5 0 
C 2.5 -0.663008 2.236584 -1.29895 1.767767 -1.767767 
C 1.29895 -2.236584 0.663008 -2.5 0 -2.5 
C -0.663008 -2.5 -1.29895 -2.236584 -1.767767 -1.767767 
C -2.236584 -1.29895 -2.5 -0.663008 -2.5 0 
C -2.5 0.663008 -2.236584 1.29895 -1.767767 1.767767 
C -1.29895 2.236584 -0.663008 2.5 0 2.5 
z
" style="stroke: #bb5d28"/>
    </defs>
    <g clip-path="url(#pdd4c2aa2de)">
     <use xlink:href="#m0c99941b9a" x="144.687104" y="106.539952" style="fill: #bb5d28; stroke: #bb5d28"/>
     <use xlink:href="#m0c99941b9a" x="167.846912" y="129.69976" style="fill: #bb5d28; stroke: #bb5d28"/>
    </g>
   </g>
   <g id="matplotlib.axis_1">
    <g id="xtick_1">
     <g id="line2d_1">
      <path d="M 52.047873 233.918895 
L 52.047873 25.480625 
" clip-path="url(#pdd4c2aa2de)" style="fill: none; stroke: #b0b0b0; stroke-opacity: 0.15; stroke-width: 0.8; stroke-linecap: square"/>
     </g>
     <g id="line2d_2">
      <defs>
       <path id="m6c92178be7" d="M 0 0 
L 0 3.5 
" style="stroke: #000000; stroke-width: 0.8"/>
      </defs>
      <g>
       <use xlink:href="#m6c92178be7" x="52.047873" y="233.918895" style="stroke: #000000; stroke-width: 0.8"/>
      </g>
     </g>
     <g id="text_1">
      <text style="font-size: 9px; font-family: 'DejaVu Serif'; text-anchor: middle" x="52.047873" y="247.756786" transform="rotate(-0 52.047873 247.756786)">−4</text>
     </g>
    </g>
    <g id="xtick_2">
     <g id="line2d_3">
      <path d="M 98.367488 233.918895 
L 98.367488 25.480625 
" clip-path="url(#pdd4c2aa2de)" style="fill: none; stroke: #b0b0b0; stroke-opacity: 0.15; stroke-width: 0.8; stroke-linecap: square"/>
     </g>
     <g id="line2d_4">
      <g>
       <use xlink:href="#m6c92178be7" x="98.367488" y="233.918895" style="stroke: #000000; stroke-width: 0.8"/>
      </g>
     </g>
     <g id="text_2">
      <text style="font-size: 9px; font-family: 'DejaVu Serif'; text-anchor: middle" x="98.367488" y="247.756786" transform="rotate(-0 98.367488 247.756786)">−2</text>
     </g>
    </g>
    <g id="xtick_3">
     <g id="line2d_5">
      <path d="M 144.687104 233.918895 
L 144.687104 25.480625 
" clip-path="url(#pdd4c2aa2de)" style="fill: none; stroke: #b0b0b0; stroke-opacity: 0.15; stroke-width: 0.8; stroke-linecap: square"/>
     </g>
     <g id="line2d_6">
      <g>
       <use xlink:href="#m6c92178be7" x="144.687104" y="233.918895" style="stroke: #000000; stroke-width: 0.8"/>
      </g>
     </g>
     <g id="text_3">
      <text style="font-size: 9px; font-family: 'DejaVu Serif'; text-anchor: middle" x="144.687104" y="247.756786" transform="rotate(-0 144.687104 247.756786)">0</text>
     </g>
    </g>
    <g id="xtick_4">
     <g id="line2d_7">
      <path d="M 191.006719 233.918895 
L 191.006719 25.480625 
" clip-path="url(#pdd4c2aa2de)" style="fill: none; stroke: #b0b0b0; stroke-opacity: 0.15; stroke-width: 0.8; stroke-linecap: square"/>
     </g>
     <g id="line2d_8">
      <g>
       <use xlink:href="#m6c92178be7" x="191.006719" y="233.918895" style="stroke: #000000; stroke-width: 0.8"/>
      </g>
     </g>
     <g id="text_4">
      <text style="font-size: 9px; font-family: 'DejaVu Serif'; text-anchor: middle" x="191.006719" y="247.756786" transform="rotate(-0 191.006719 247.756786)">2</text>
     </g>
    </g>
    <g id="xtick_5">
     <g id="line2d_9">
      <path d="M 237.326335 233.918895 
L 237.326335 25.480625 
" clip-path="url(#pdd4c2aa2de)" style="fill: none; stroke: #b0b0b0; stroke-opacity: 0.15; stroke-width: 0.8; stroke-linecap: square"/>
     </g>
     <g id="line2d_10">
      <g>
       <use xlink:href="#m6c92178be7" x="237.326335" y="233.918895" style="stroke: #000000; stroke-width: 0.8"/>
      </g>
     </g>
     <g id="text_5">
      <text style="font-size: 9px; font-family: 'DejaVu Serif'; text-anchor: middle" x="237.326335" y="247.756786" transform="rotate(-0 237.326335 247.756786)">4</text>
     </g>
    </g>
    <g id="text_6">
     <!-- $U$ -->
     <g transform="translate(140.862104 260.756786)">
      <text>
       <tspan x="0" y="-0.4375" style="font-style: italic; font-size: 9px; font-family: 'DejaVu Serif'">U</tspan>
      </text>
     </g>
    </g>
   </g>
   <g id="matplotlib.axis_2">
    <g id="ytick_1">
     <g id="line2d_11">
      <path d="M 40.467969 222.338991 
L 248.906239 222.338991 
" clip-path="url(#pdd4c2aa2de)" style="fill: none; stroke: #b0b0b0; stroke-opacity: 0.15; stroke-width: 0.8; stroke-linecap: square"/>
     </g>
     <g id="line2d_12">
      <defs>
       <path id="ma8b3144521" d="M 0 0 
L -3.5 0 
" style="stroke: #000000; stroke-width: 0.8"/>
      </defs>
      <g>
       <use xlink:href="#ma8b3144521" x="40.467969" y="222.338991" style="stroke: #000000; stroke-width: 0.8"/>
      </g>
     </g>
     <g id="text_7">
      <text style="font-size: 9px; font-family: 'DejaVu Serif'; text-anchor: end" x="33.467969" y="225.757936" transform="rotate(-0 33.467969 225.757936)">−4</text>
     </g>
    </g>
    <g id="ytick_2">
     <g id="line2d_13">
      <path d="M 40.467969 199.179183 
L 248.906239 199.179183 
" clip-path="url(#pdd4c2aa2de)" style="fill: none; stroke: #b0b0b0; stroke-opacity: 0.15; stroke-width: 0.8; stroke-linecap: square"/>
     </g>
     <g id="line2d_14">
      <g>
       <use xlink:href="#ma8b3144521" x="40.467969" y="199.179183" style="stroke: #000000; stroke-width: 0.8"/>
      </g>
     </g>
     <g id="text_8">
      <text style="font-size: 9px; font-family: 'DejaVu Serif'; text-anchor: end" x="33.467969" y="202.598129" transform="rotate(-0 33.467969 202.598129)">−3</text>
     </g>
    </g>
    <g id="ytick_3">
     <g id="line2d_15">
      <path d="M 40.467969 176.019376 
L 248.906239 176.019376 
" clip-path="url(#pdd4c2aa2de)" style="fill: none; stroke: #b0b0b0; stroke-opacity: 0.15; stroke-width: 0.8; stroke-linecap: square"/>
     </g>
     <g id="line2d_16">
      <g>
       <use xlink:href="#ma8b3144521" x="40.467969" y="176.019376" style="stroke: #000000; stroke-width: 0.8"/>
      </g>
     </g>
     <g id="text_9">
      <text style="font-size: 9px; font-family: 'DejaVu Serif'; text-anchor: end" x="33.467969" y="179.438321" transform="rotate(-0 33.467969 179.438321)">−2</text>
     </g>
    </g>
    <g id="ytick_4">
     <g id="line2d_17">
      <path d="M 40.467969 152.859568 
L 248.906239 152.859568 
" clip-path="url(#pdd4c2aa2de)" style="fill: none; stroke: #b0b0b0; stroke-opacity: 0.15; stroke-width: 0.8; stroke-linecap: square"/>
     </g>
     <g id="line2d_18">
      <g>
       <use xlink:href="#ma8b3144521" x="40.467969" y="152.859568" style="stroke: #000000; stroke-width: 0.8"/>
      </g>
     </g>
     <g id="text_10">
      <text style="font-size: 9px; font-family: 'DejaVu Serif'; text-anchor: end" x="33.467969" y="156.278513" transform="rotate(-0 33.467969 156.278513)">−1</text>
     </g>
    </g>
    <g id="ytick_5">
     <g id="line2d_19">
      <path d="M 40.467969 129.69976 
L 248.906239 129.69976 
" clip-path="url(#pdd4c2aa2de)" style="fill: none; stroke: #b0b0b0; stroke-opacity: 0.15; stroke-width: 0.8; stroke-linecap: square"/>
     </g>
     <g id="line2d_20">
      <g>
       <use xlink:href="#ma8b3144521" x="40.467969" y="129.69976" style="stroke: #000000; stroke-width: 0.8"/>
      </g>
     </g>
     <g id="text_11">
      <text style="font-size: 9px; font-family: 'DejaVu Serif'; text-anchor: end" x="33.467969" y="133.118705" transform="rotate(-0 33.467969 133.118705)">0</text>
     </g>
    </g>
    <g id="ytick_6">
     <g id="line2d_21">
      <path d="M 40.467969 106.539952 
L 248.906239 106.539952 
" clip-path="url(#pdd4c2aa2de)" style="fill: none; stroke: #b0b0b0; stroke-opacity: 0.15; stroke-width: 0.8; stroke-linecap: square"/>
     </g>
     <g id="line2d_22">
      <g>
       <use xlink:href="#ma8b3144521" x="40.467969" y="106.539952" style="stroke: #000000; stroke-width: 0.8"/>
      </g>
     </g>
     <g id="text_12">
      <text style="font-size: 9px; font-family: 'DejaVu Serif'; text-anchor: end" x="33.467969" y="109.958898" transform="rotate(-0 33.467969 109.958898)">1</text>
     </g>
    </g>
    <g id="ytick_7">
     <g id="line2d_23">
      <path d="M 40.467969 83.380144 
L 248.906239 83.380144 
" clip-path="url(#pdd4c2aa2de)" style="fill: none; stroke: #b0b0b0; stroke-opacity: 0.15; stroke-width: 0.8; stroke-linecap: square"/>
     </g>
     <g id="line2d_24">
      <g>
       <use xlink:href="#ma8b3144521" x="40.467969" y="83.380144" style="stroke: #000000; stroke-width: 0.8"/>
      </g>
     </g>
     <g id="text_13">
      <text style="font-size: 9px; font-family: 'DejaVu Serif'; text-anchor: end" x="33.467969" y="86.79909" transform="rotate(-0 33.467969 86.79909)">2</text>
     </g>
    </g>
    <g id="ytick_8">
     <g id="line2d_25">
      <path d="M 40.467969 60.220337 
L 248.906239 60.220337 
" clip-path="url(#pdd4c2aa2de)" style="fill: none; stroke: #b0b0b0; stroke-opacity: 0.15; stroke-width: 0.8; stroke-linecap: square"/>
     </g>
     <g id="line2d_26">
      <g>
       <use xlink:href="#ma8b3144521" x="40.467969" y="60.220337" style="stroke: #000000; stroke-width: 0.8"/>
      </g>
     </g>
     <g id="text_14">
      <text style="font-size: 9px; font-family: 'DejaVu Serif'; text-anchor: end" x="33.467969" y="63.639282" transform="rotate(-0 33.467969 63.639282)">3</text>
     </g>
    </g>
    <g id="ytick_9">
     <g id="line2d_27">
      <path d="M 40.467969 37.060529 
L 248.906239 37.060529 
" clip-path="url(#pdd4c2aa2de)" style="fill: none; stroke: #b0b0b0; stroke-opacity: 0.15; stroke-width: 0.8; stroke-linecap: square"/>
     </g>
     <g id="line2d_28">
      <g>
       <use xlink:href="#ma8b3144521" x="40.467969" y="37.060529" style="stroke: #000000; stroke-width: 0.8"/>
      </g>
     </g>
     <g id="text_15">
      <text style="font-size: 9px; font-family: 'DejaVu Serif'; text-anchor: end" x="33.467969" y="40.479474" transform="rotate(-0 33.467969 40.479474)">4</text>
     </g>
    </g>
    <g id="text_16">
     <!-- $V$ -->
     <g transform="translate(14.037891 132.98476) rotate(-90)">
      <text>
       <tspan x="0" y="-0.4375" style="font-style: italic; font-size: 9px; font-family: 'DejaVu Serif'">V</tspan>
      </text>
     </g>
    </g>
   </g>
   <g id="QuadContourSet_1">
    <path d="M 195.101344 233.918895 
L 195.917428 226.407606 
L 196.782832 220.356845 
L 197.746174 215.140672 
L 198.776684 210.759087 
L 199.885215 207.003443 
L 201.026583 203.873739 
L 202.334317 200.952682 
L 203.70531 198.448919 
L 205.090386 196.351348 
L 206.560455 194.484628 
L 208.334688 192.606805 
L 210.097912 191.05129 
L 212.184381 189.514541 
L 214.280756 188.22522 
L 216.774614 186.945083 
L 219.69567 185.711829 
L 222.825374 184.629705 
L 226.581019 183.573866 
L 230.962604 182.587883 
L 235.97013 181.69494 
L 242.02089 180.852457 
L 248.906239 180.114 
M 40.467969 180.114 
L 47.979258 180.930084 
L 54.030018 181.795488 
L 59.246191 182.75883 
L 63.627777 183.78934 
L 67.383421 184.897871 
L 70.513125 186.03924 
L 73.434182 187.346973 
L 75.937945 188.717966 
L 78.035515 190.103042 
L 79.902236 191.573111 
L 81.780058 193.347345 
L 83.335573 195.110568 
L 84.872323 197.197038 
L 86.161644 199.293412 
L 87.441781 201.78727 
L 88.675035 204.708327 
L 89.757158 207.83803 
L 90.812998 211.593675 
L 91.798981 215.97526 
L 92.691924 220.982786 
L 93.534407 227.033547 
L 94.272864 233.918895 
M 248.906239 79.28552 
L 241.39495 78.469436 
L 235.344189 77.604032 
L 230.128016 76.64069 
L 225.746431 75.61018 
L 221.990786 74.501649 
L 218.861083 73.36028 
L 215.940026 72.052547 
L 213.436263 70.681554 
L 211.338692 69.296478 
L 209.471971 67.826409 
L 207.594149 66.052175 
L 206.038634 64.288952 
L 204.501885 62.202482 
L 203.212564 60.106108 
L 201.932427 57.61225 
L 200.699173 54.691193 
L 199.617049 51.56149 
L 198.561209 47.805845 
L 197.575227 43.42426 
L 196.682284 38.416734 
L 195.8398 32.365973 
L 195.101344 25.480625 
M 94.272864 25.480625 
L 93.45678 32.991914 
L 92.591376 39.042675 
L 91.628034 44.258848 
L 90.597524 48.640433 
L 89.488993 52.396077 
L 88.347624 55.525781 
L 87.03989 58.446838 
L 85.668897 60.950601 
L 84.283821 63.048172 
L 82.813753 64.914892 
L 81.039519 66.792715 
L 79.276295 68.34823 
L 77.189826 69.884979 
L 75.093452 71.1743 
L 72.599594 72.454437 
L 69.678537 73.687691 
L 66.548833 74.769815 
L 62.793189 75.825654 
L 58.411604 76.811637 
L 53.404078 77.70458 
L 47.353317 78.547063 
L 40.467969 79.28552 
M 142.287664 152.765861 
L 139.783901 152.462247 
L 137.280138 151.929196 
L 134.985022 151.206243 
L 132.898553 150.313385 
L 131.020731 149.268454 
L 129.351555 148.091822 
L 127.784035 146.704484 
L 126.430499 145.205115 
L 125.178617 143.461299 
L 124.135382 141.61351 
L 123.258887 139.610489 
L 122.513643 137.315372 
L 121.996711 135.020256 
L 121.6567 132.516493 
L 121.529117 130.01273 
L 121.621003 127.30032 
L 121.924616 124.796557 
L 122.457668 122.292794 
L 123.180621 119.997678 
L 124.073479 117.911209 
L 125.11841 116.033387 
L 126.295041 114.364212 
L 127.68238 112.796692 
L 129.181749 111.443155 
L 130.925565 110.191273 
L 132.773354 109.148039 
L 134.776375 108.271543 
L 137.071491 107.526299 
L 139.366607 107.009368 
L 141.87037 106.669356 
L 144.374133 106.541773 
L 147.086543 106.633659 
L 149.590306 106.937273 
L 152.094069 107.470324 
L 154.389185 108.193277 
L 156.475655 109.086135 
L 158.353477 110.131066 
L 160.022652 111.307698 
L 161.590172 112.695036 
L 162.943709 114.194405 
L 164.19559 115.938221 
L 165.238825 117.78601 
L 166.115321 119.789031 
L 166.860565 122.084148 
L 167.377496 124.379264 
L 167.717508 126.883027 
L 167.84509 129.38679 
L 167.753204 132.0992 
L 167.449591 134.602963 
L 166.91654 137.106726 
L 166.193586 139.401842 
L 165.300728 141.488311 
L 164.255797 143.366133 
L 163.079166 145.035308 
L 161.691827 146.602828 
L 160.192459 147.956365 
L 158.448643 149.208247 
L 156.600854 150.251481 
L 154.597832 151.127977 
L 152.302716 151.873221 
L 150.0076 152.390152 
L 147.503837 152.730164 
L 145.000074 152.857747 
L 142.287664 152.765861 
L 142.287664 152.765861 
" clip-path="url(#pdd4c2aa2de)" style="fill: none; stroke: #126775; stroke-width: 1.3"/>
   </g>
   <g id="patch_3">
    <path d="M 40.467969 233.918895 
L 40.467969 25.480625 
" style="fill: none; stroke: #000000; stroke-width: 0.8; stroke-linejoin: miter; stroke-linecap: square"/>
   </g>
   <g id="patch_4">
    <path d="M 40.467969 233.918895 
L 248.906239 233.918895 
" style="fill: none; stroke: #000000; stroke-width: 0.8; stroke-linejoin: miter; stroke-linecap: square"/>
   </g>
   <g id="text_17">
    <!-- $O$ -->
    <g transform="translate(152.687104 98.539952)">
     <text>
      <tspan x="0" y="-0.3125" style="font-style: italic; font-size: 9px; font-family: 'DejaVu Serif'">O</tspan>
     </text>
    </g>
   </g>
   <g id="text_18">
    <!-- $P$ -->
    <g transform="translate(175.846912 121.69976)">
     <text>
      <tspan x="0" y="-0.4375" style="font-style: italic; font-size: 9px; font-family: 'DejaVu Serif'">P</tspan>
     </text>
    </g>
   </g>
   <g id="text_19">
    <!-- Edwards, $t=1/2$ -->
    <g transform="translate(103.087104 19.480625)">
     <text>
      <tspan x="0" y="-0.40625" style="font-size: 10px; font-family: 'DejaVu Serif'">E</tspan>
      <tspan x="7.299805" y="-0.40625" style="font-size: 10px; font-family: 'DejaVu Serif'">d</tspan>
      <tspan x="13.701172" y="-0.40625" style="font-size: 10px; font-family: 'DejaVu Serif'">w</tspan>
      <tspan x="22.260742" y="-0.40625" style="font-size: 10px; font-family: 'DejaVu Serif'">a</tspan>
      <tspan x="28.222656" y="-0.40625" style="font-size: 10px; font-family: 'DejaVu Serif'">r</tspan>
      <tspan x="33.00293" y="-0.40625" style="font-size: 10px; font-family: 'DejaVu Serif'">d</tspan>
      <tspan x="39.404297" y="-0.40625" style="font-size: 10px; font-family: 'DejaVu Serif'">s</tspan>
      <tspan x="44.536133" y="-0.40625" style="font-size: 10px; font-family: 'DejaVu Serif'">,</tspan>
      <tspan x="47.714844" y="-0.40625" style="font-size: 10px; font-family: 'DejaVu Serif'"> </tspan>
      <tspan x="56.808594" y="-0.40625" style="font-size: 10px; font-family: 'DejaVu Serif'">=</tspan>
      <tspan x="67.083984" y="-0.40625" style="font-size: 10px; font-family: 'DejaVu Serif'">1</tspan>
      <tspan x="73.446289" y="-0.40625" style="font-size: 10px; font-family: 'DejaVu Serif'">/</tspan>
      <tspan x="76.81543" y="-0.40625" style="font-size: 10px; font-family: 'DejaVu Serif'">2</tspan>
      <tspan x="50.893555" y="-0.40625" style="font-style: italic; font-size: 10px; font-family: 'DejaVu Serif'">t</tspan>
     </text>
    </g>
   </g>
  </g>
  <g id="axes_2">
   <g id="patch_5">
    <path d="M 296.76125 238.59952 
L 505.19952 238.59952 
L 505.19952 20.8 
L 296.76125 20.8 
z
" style="fill: #ffffff"/>
   </g>
   <g id="PathCollection_2">
    <defs>
     <path id="m4ee0f2cfea" d="M 0 2.236068 
C 0.593012 2.236068 1.161816 2.000462 1.581139 1.581139 
C 2.000462 1.161816 2.236068 0.593012 2.236068 0 
C 2.236068 -0.593012 2.000462 -1.161816 1.581139 -1.581139 
C 1.161816 -2.000462 0.593012 -2.236068 0 -2.236068 
C -0.593012 -2.236068 -1.161816 -2.000462 -1.581139 -1.581139 
C -2.000462 -1.161816 -2.236068 -0.593012 -2.236068 0 
C -2.236068 0.593012 -2.000462 1.161816 -1.581139 1.581139 
C -1.161816 2.000462 -0.593012 2.236068 0 2.236068 
z
" style="stroke: #bb5d28"/>
    </defs>
    <g clip-path="url(#p82edb76aab)">
     <use xlink:href="#m4ee0f2cfea" x="308.341154" y="129.69976" style="fill: #bb5d28; stroke: #bb5d28"/>
     <use xlink:href="#m4ee0f2cfea" x="321.207714" y="129.69976" style="fill: #bb5d28; stroke: #bb5d28"/>
     <use xlink:href="#m4ee0f2cfea" x="424.140193" y="129.69976" style="fill: #bb5d28; stroke: #bb5d28"/>
    </g>
   </g>
   <g id="matplotlib.axis_3">
    <g id="xtick_6">
     <g id="line2d_29">
      <path d="M 308.341154 238.59952 
L 308.341154 20.8 
" clip-path="url(#p82edb76aab)" style="fill: none; stroke: #b0b0b0; stroke-opacity: 0.15; stroke-width: 0.8; stroke-linecap: square"/>
     </g>
     <g id="line2d_30">
      <g>
       <use xlink:href="#m6c92178be7" x="308.341154" y="238.59952" style="stroke: #000000; stroke-width: 0.8"/>
      </g>
     </g>
     <g id="text_20">
      <text style="font-size: 9px; font-family: 'DejaVu Serif'; text-anchor: middle" x="308.341154" y="252.437411" transform="rotate(-0 308.341154 252.437411)">0.0</text>
     </g>
    </g>
    <g id="xtick_7">
     <g id="line2d_31">
      <path d="M 366.240673 238.59952 
L 366.240673 20.8 
" clip-path="url(#p82edb76aab)" style="fill: none; stroke: #b0b0b0; stroke-opacity: 0.15; stroke-width: 0.8; stroke-linecap: square"/>
     </g>
     <g id="line2d_32">
      <g>
       <use xlink:href="#m6c92178be7" x="366.240673" y="238.59952" style="stroke: #000000; stroke-width: 0.8"/>
      </g>
     </g>
     <g id="text_21">
      <text style="font-size: 9px; font-family: 'DejaVu Serif'; text-anchor: middle" x="366.240673" y="252.437411" transform="rotate(-0 366.240673 252.437411)">0.5</text>
     </g>
    </g>
    <g id="xtick_8">
     <g id="line2d_33">
      <path d="M 424.140193 238.59952 
L 424.140193 20.8 
" clip-path="url(#p82edb76aab)" style="fill: none; stroke: #b0b0b0; stroke-opacity: 0.15; stroke-width: 0.8; stroke-linecap: square"/>
     </g>
     <g id="line2d_34">
      <g>
       <use xlink:href="#m6c92178be7" x="424.140193" y="238.59952" style="stroke: #000000; stroke-width: 0.8"/>
      </g>
     </g>
     <g id="text_22">
      <text style="font-size: 9px; font-family: 'DejaVu Serif'; text-anchor: middle" x="424.140193" y="252.437411" transform="rotate(-0 424.140193 252.437411)">1.0</text>
     </g>
    </g>
    <g id="xtick_9">
     <g id="line2d_35">
      <path d="M 482.039712 238.59952 
L 482.039712 20.8 
" clip-path="url(#p82edb76aab)" style="fill: none; stroke: #b0b0b0; stroke-opacity: 0.15; stroke-width: 0.8; stroke-linecap: square"/>
     </g>
     <g id="line2d_36">
      <g>
       <use xlink:href="#m6c92178be7" x="482.039712" y="238.59952" style="stroke: #000000; stroke-width: 0.8"/>
      </g>
     </g>
     <g id="text_23">
      <text style="font-size: 9px; font-family: 'DejaVu Serif'; text-anchor: middle" x="482.039712" y="252.437411" transform="rotate(-0 482.039712 252.437411)">1.5</text>
     </g>
    </g>
    <g id="text_24">
     <!-- $\ell$ -->
     <g transform="translate(398.370385 265.437411)">
      <text>
       <tspan x="0" y="-0.8125" style="font-size: 9px; font-family: 'STIXGeneral'">ℓ</tspan>
      </text>
     </g>
    </g>
   </g>
   <g id="matplotlib.axis_4">
    <g id="ytick_10">
     <g id="line2d_37">
      <path d="M 296.76125 206.760284 
L 505.19952 206.760284 
" clip-path="url(#p82edb76aab)" style="fill: none; stroke: #b0b0b0; stroke-opacity: 0.15; stroke-width: 0.8; stroke-linecap: square"/>
     </g>
     <g id="line2d_38">
      <g>
       <use xlink:href="#ma8b3144521" x="296.76125" y="206.760284" style="stroke: #000000; stroke-width: 0.8"/>
      </g>
     </g>
     <g id="text_25">
      <text style="font-size: 9px; font-family: 'DejaVu Serif'; text-anchor: end" x="289.76125" y="210.179229" transform="rotate(-0 289.76125 210.179229)">−1.0</text>
     </g>
    </g>
    <g id="ytick_11">
     <g id="line2d_39">
      <path d="M 296.76125 168.230022 
L 505.19952 168.230022 
" clip-path="url(#p82edb76aab)" style="fill: none; stroke: #b0b0b0; stroke-opacity: 0.15; stroke-width: 0.8; stroke-linecap: square"/>
     </g>
     <g id="line2d_40">
      <g>
       <use xlink:href="#ma8b3144521" x="296.76125" y="168.230022" style="stroke: #000000; stroke-width: 0.8"/>
      </g>
     </g>
     <g id="text_26">
      <text style="font-size: 9px; font-family: 'DejaVu Serif'; text-anchor: end" x="289.76125" y="171.648967" transform="rotate(-0 289.76125 171.648967)">−0.5</text>
     </g>
    </g>
    <g id="ytick_12">
     <g id="line2d_41">
      <path d="M 296.76125 129.69976 
L 505.19952 129.69976 
" clip-path="url(#p82edb76aab)" style="fill: none; stroke: #b0b0b0; stroke-opacity: 0.15; stroke-width: 0.8; stroke-linecap: square"/>
     </g>
     <g id="line2d_42">
      <g>
       <use xlink:href="#ma8b3144521" x="296.76125" y="129.69976" style="stroke: #000000; stroke-width: 0.8"/>
      </g>
     </g>
     <g id="text_27">
      <text style="font-size: 9px; font-family: 'DejaVu Serif'; text-anchor: end" x="289.76125" y="133.118705" transform="rotate(-0 289.76125 133.118705)">0.0</text>
     </g>
    </g>
    <g id="ytick_13">
     <g id="line2d_43">
      <path d="M 296.76125 91.169498 
L 505.19952 91.169498 
" clip-path="url(#p82edb76aab)" style="fill: none; stroke: #b0b0b0; stroke-opacity: 0.15; stroke-width: 0.8; stroke-linecap: square"/>
     </g>
     <g id="line2d_44">
      <g>
       <use xlink:href="#ma8b3144521" x="296.76125" y="91.169498" style="stroke: #000000; stroke-width: 0.8"/>
      </g>
     </g>
     <g id="text_28">
      <text style="font-size: 9px; font-family: 'DejaVu Serif'; text-anchor: end" x="289.76125" y="94.588444" transform="rotate(-0 289.76125 94.588444)">0.5</text>
     </g>
    </g>
    <g id="ytick_14">
     <g id="line2d_45">
      <path d="M 296.76125 52.639236 
L 505.19952 52.639236 
" clip-path="url(#p82edb76aab)" style="fill: none; stroke: #b0b0b0; stroke-opacity: 0.15; stroke-width: 0.8; stroke-linecap: square"/>
     </g>
     <g id="line2d_46">
      <g>
       <use xlink:href="#ma8b3144521" x="296.76125" y="52.639236" style="stroke: #000000; stroke-width: 0.8"/>
      </g>
     </g>
     <g id="text_29">
      <text style="font-size: 9px; font-family: 'DejaVu Serif'; text-anchor: end" x="289.76125" y="56.058182" transform="rotate(-0 289.76125 56.058182)">1.0</text>
     </g>
    </g>
    <g id="text_30">
     <!-- $\eta$ -->
     <g transform="translate(261.744609 132.39976) rotate(-90)">
      <text>
       <tspan x="0" y="-0.203125" style="font-style: italic; font-size: 9px; font-family: 'DejaVu Serif'">η</tspan>
      </text>
     </g>
    </g>
   </g>
   <g id="line2d_47">
    <path d="M 308.341154 129.69976 
L 308.502187 128.748544 
L 308.888667 127.975576 
L 309.500594 127.260315 
L 310.337967 126.626295 
L 311.400786 126.102983 
L 312.656846 125.733238 
L 314.073939 125.550753 
L 315.555445 125.584785 
L 317.004745 125.837263 
L 318.325218 126.287154 
L 319.436348 126.894472 
L 320.273721 127.595735 
L 320.837337 128.347559 
L 321.127197 129.062918 
L 321.207714 129.69976 
L 321.207714 129.69976 
" clip-path="url(#p82edb76aab)" style="fill: none; stroke: #126775; stroke-width: 1.5; stroke-linecap: square"/>
   </g>
   <g id="line2d_48">
    <path d="M 308.341154 129.69976 
L 308.502187 130.650976 
L 308.888667 131.423944 
L 309.500594 132.139205 
L 310.337967 132.773225 
L 311.400786 133.296537 
L 312.656846 133.666282 
L 314.073939 133.848767 
L 315.555445 133.814735 
L 317.004745 133.562257 
L 318.325218 133.112366 
L 319.436348 132.505048 
L 320.273721 131.803785 
L 320.837337 131.051961 
L 321.127197 130.336602 
L 321.207714 129.69976 
L 321.207714 129.69976 
" clip-path="url(#p82edb76aab)" style="fill: none; stroke: #126775; stroke-width: 1.5; stroke-linecap: square"/>
   </g>
   <g id="line2d_49">
    <path d="M 424.140193 129.69976 
L 424.328602 126.764111 
L 424.799624 124.183969 
L 425.459055 121.852342 
L 426.4011 119.337335 
L 427.625758 116.691746 
L 429.227234 113.761297 
L 431.299733 110.447823 
L 433.937458 106.667601 
L 437.328819 102.214239 
L 441.75643 96.783145 
L 447.973925 89.533076 
L 458.524826 77.624624 
L 479.532424 53.926825 
L 491.590597 39.956651 
L 499.409568 30.699978 
L 499.409568 30.699978 
" clip-path="url(#p82edb76aab)" style="fill: none; stroke: #126775; stroke-width: 1.5; stroke-linecap: square"/>
   </g>
   <g id="line2d_50">
    <path d="M 424.140193 129.69976 
L 424.328602 132.635409 
L 424.799624 135.215551 
L 425.459055 137.547178 
L 426.4011 140.062185 
L 427.625758 142.707774 
L 429.227234 145.638223 
L 431.299733 148.951697 
L 433.937458 152.731919 
L 437.328819 157.185281 
L 441.75643 162.616375 
L 447.973925 169.866444 
L 458.524826 181.774896 
L 479.532424 205.472695 
L 491.590597 219.442869 
L 499.409568 228.699542 
L 499.409568 228.699542 
" clip-path="url(#p82edb76aab)" style="fill: none; stroke: #126775; stroke-width: 1.5; stroke-linecap: square"/>
   </g>
   <g id="line2d_51">
    <path d="M 296.76125 129.69976 
L 505.19952 129.69976 
" clip-path="url(#p82edb76aab)" style="fill: none; stroke: #697580; stroke-width: 0.5; stroke-linecap: square"/>
   </g>
   <g id="patch_6">
    <path d="M 296.76125 238.59952 
L 296.76125 20.8 
" style="fill: none; stroke: #000000; stroke-width: 0.8; stroke-linejoin: miter; stroke-linecap: square"/>
   </g>
   <g id="patch_7">
    <path d="M 296.76125 238.59952 
L 505.19952 238.59952 
" style="fill: none; stroke: #000000; stroke-width: 0.8; stroke-linejoin: miter; stroke-linecap: square"/>
   </g>
   <g id="text_31">
    <!-- Legendre, $m=1/9$ -->
    <g transform="translate(354.680385 14.8)">
     <text>
      <tspan x="0" y="-0.40625" style="font-size: 10px; font-family: 'DejaVu Serif'">L</tspan>
      <tspan x="6.640625" y="-0.40625" style="font-size: 10px; font-family: 'DejaVu Serif'">e</tspan>
      <tspan x="12.558594" y="-0.40625" style="font-size: 10px; font-family: 'DejaVu Serif'">g</tspan>
      <tspan x="18.959961" y="-0.40625" style="font-size: 10px; font-family: 'DejaVu Serif'">e</tspan>
      <tspan x="24.87793" y="-0.40625" style="font-size: 10px; font-family: 'DejaVu Serif'">n</tspan>
      <tspan x="31.318359" y="-0.40625" style="font-size: 10px; font-family: 'DejaVu Serif'">d</tspan>
      <tspan x="37.719727" y="-0.40625" style="font-size: 10px; font-family: 'DejaVu Serif'">r</tspan>
      <tspan x="42.5" y="-0.40625" style="font-size: 10px; font-family: 'DejaVu Serif'">e</tspan>
      <tspan x="48.417969" y="-0.40625" style="font-size: 10px; font-family: 'DejaVu Serif'">,</tspan>
      <tspan x="51.59668" y="-0.40625" style="font-size: 10px; font-family: 'DejaVu Serif'"> </tspan>
      <tspan x="66.154297" y="-0.40625" style="font-size: 10px; font-family: 'DejaVu Serif'">=</tspan>
      <tspan x="76.429688" y="-0.40625" style="font-size: 10px; font-family: 'DejaVu Serif'">1</tspan>
      <tspan x="82.791992" y="-0.40625" style="font-size: 10px; font-family: 'DejaVu Serif'">/</tspan>
      <tspan x="86.161133" y="-0.40625" style="font-size: 10px; font-family: 'DejaVu Serif'">9</tspan>
      <tspan x="54.775391" y="-0.40625" style="font-style: italic; font-size: 10px; font-family: 'DejaVu Serif'">m</tspan>
     </text>
    </g>
   </g>
  </g>
 </g>
 <defs>
  <clipPath id="pdd4c2aa2de">
   <rect x="40.467969" y="25.480625" width="208.43827" height="208.43827"/>
  </clipPath>
  <clipPath id="p82edb76aab">
   <rect x="296.76125" y="20.8" width="208.43827" height="217.79952"/>
  </clipPath>
 </defs>
</svg>
